<?xml version="1.0" encoding="UTF-8" standalone="no"?><!DOCTYPE svg PUBLIC "-//W3C//DTD SVG 1.1//EN" "http://www.w3.org/Graphics/SVG/1.1/DTD/svg11.dtd"><svg width="100%" height="100%" viewBox="0 0 1080 1080" version="1.1" xmlns="http://www.w3.org/2000/svg" xmlns:xlink="http://www.w3.org/1999/xlink" xml:space="preserve" xmlns:serif="http://www.serif.com/" style="fill-rule:evenodd;clip-rule:evenodd;stroke-linejoin:round;stroke-miterlimit:2;"><rect id="icon" x="0" y="0" width="1080" height="1080" style="fill:none;"/><path d="M223.39,1c-77.78,0 -155.559,46.395 -165.111,176.028l-47.76,713.663c-6.823,118.717 42.301,188.309 140.55,188.309c96.883,0 159.653,-58.676 171.934,-126.904c10.916,-65.498 -6.823,-110.529 -34.114,-151.466l-170.57,-260.63c-42.301,-65.499 27.291,-120.081 81.874,-55.947l373.888,444.846c79.145,94.154 113.258,150.101 203.319,150.101c81.874,0 158.289,-45.03 174.663,-161.018l49.125,-341.139c10.916,-76.415 -40.937,-110.529 -87.332,-109.164c-42.301,2.729 -80.509,36.843 -61.405,99.612l50.488,165.112c12.281,39.572 -25.926,81.873 -65.498,62.769l-474.866,-227.881c-46.395,-21.833 -57.312,-53.218 -51.853,-83.238c6.823,-40.937 79.144,-49.124 132.362,-60.04l427.106,-92.79c124.175,-27.291 181.486,-65.499 197.861,-161.018c13.645,-81.873 -42.301,-169.205 -118.717,-169.205c-84.602,0 -143.278,35.479 -231.974,102.342l-356.15,270.182c-68.228,51.853 -115.987,79.144 -151.465,23.198c-19.104,-30.021 1.364,-76.416 38.207,-121.446l21.833,-25.927c88.696,-105.07 92.79,-248.349 -46.395,-248.349Z" style="fill:#dd3c57;fill-rule:nonzero;"/></svg>