<svg xmlns="http://www.w3.org/2000/svg">
    <!-- dark-mode -->
    <symbol id="dark-mode" viewBox="0 -960 960 960" width="20px" height="20px">
        <path
            d="M480.24-140.41q-142.63 0-241.23-98.48T140.41-480q0-123.93 78.74-218.93t205.31-115.55q14.39-3.43 26.04 1.85 11.65 5.28 18.33 14.52 6.91 9.24 8.72 22.2 1.82 12.95-3.75 26.11-10.89 22.04-17.31 46.15-6.42 24.11-6.42 48 0 86.67 59.81 146.37 59.82 59.69 146.73 59.69 24.37 0 48.48-5.94 24.11-5.95 45.91-17.08 12.91-5.8 25.13-3.61 12.22 2.2 21.22 8.63 8.76 6.44 14.04 17.73 5.28 11.3 2.09 25.45Q795.17-300 700.63-220.21q-94.54 79.8-220.39 79.8Z" />
    </symbol>

    <!-- light-mode -->
    <symbol id="light-mode" viewBox="0 -960 960 960" width="20px" height="20px">
        <path
            d="M479.77-288Q400-288 344-344.23q-56-56.22-56-136Q288-560 344.23-616q56.22-56 136-56Q560-672 616-615.77q56 56.22 56 136Q672-400 615.77-344q-56.22 56-136 56ZM84-438.5q-17.45 0-29.48-11.96-12.02-11.97-12.02-29.33t12.02-29.54Q66.55-521.5 84-521.5h96q17.45 0 29.48 11.96 12.02 11.97 12.02 29.33t-12.02 29.54Q197.45-438.5 180-438.5H84Zm696 0q-17.45 0-29.48-11.96-12.02-11.97-12.02-29.33t12.02-29.54Q762.55-521.5 780-521.5h96q17.45 0 29.48 11.96 12.02 11.97 12.02 29.33t-12.02 29.54Q893.45-438.5 876-438.5h-96Zm-299.79-300q-17.36 0-29.54-12.02Q438.5-762.55 438.5-780v-96q0-17.45 11.96-29.48 11.97-12.02 29.33-12.02t29.54 12.02Q521.5-893.45 521.5-876v96q0 17.45-11.96 29.48-11.97 12.02-29.33 12.02Zm0 696q-17.36 0-29.54-12.02Q438.5-66.55 438.5-84v-96q0-17.45 11.96-29.48 11.97-12.02 29.33-12.02t29.54 12.02Q521.5-197.45 521.5-180v96q0 17.45-11.96 29.48-11.97 12.02-29.33 12.02ZM238.17-662.93l-50-51q-12.67-11.68-12.67-28.33t12.67-29.57q11.87-12.67 28.81-12.67 16.93 0 28.85 12.67l51.24 50q12.67 12.38 12.55 29.24-.12 16.86-12.55 29.48-11.68 12.61-28.95 12.85-17.27.24-29.95-12.67Zm476 474.76-51.24-50q-12.67-12.11-12.67-28.92 0-16.82 12.67-29.74 11.68-12.67 28.95-12.67t29.95 12.67l50 50.76q12.67 11.68 12.67 28.33t-12.2 29.57q-12.91 12.67-29.06 12.67t-29.07-12.67Zm-51.06-474.76q-12.61-11.68-12.61-28.95t12.67-29.95l50.76-50q12.68-12.67 28.83-12.17t29.07 12.22q12.67 12.39 12.67 28.54t-12.67 29.07l-50 51.24q-12.38 12.67-29.24 12.55-16.86-.12-29.48-12.55ZM188.17-188.17q-12.67-11.87-12.67-28.81 0-16.93 12.67-28.85l50-51.24q12.11-11.67 28.92-11.67 16.82 0 29.74 11.67 12.67 12.68 12.21 29.62-.46 16.94-12.21 29.28l-50.76 50q-11.68 12.67-28.33 12.67t-29.57-12.67Z" />
    </symbol>

    <!-- show -->
    <symbol id="show" viewBox="0 -960 960 960" width="20px" height="20px">
        <path
            d="M480-312q70 0 119-49t49-119q0-70-49-119t-119-49q-70 0-119 49t-49 119q0 70 49 119t119 49Zm.04-77.02q-37.89 0-64.45-26.52-26.57-26.53-26.57-64.42t26.52-64.45q26.53-26.57 64.42-26.57t64.45 26.52q26.57 26.53 26.57 64.42t-26.52 64.45q-26.53 26.57-64.42 26.57ZM480-184.59q-131.43 0-241.87-69.98Q127.7-324.54 63.22-439.98q-5.72-9.19-7.96-19.28-2.24-10.08-2.24-20.51 0-10.43 2.24-20.74 2.24-10.32 7.96-19.51 64.48-115.44 174.91-185.41Q348.57-775.41 480-775.41t241.87 69.98q110.43 69.97 174.91 185.41 5.72 9.19 7.96 19.28 2.24 10.08 2.24 20.51 0 10.43-2.24 20.74-2.24 10.32-7.96 19.51-64.48 115.44-174.91 185.41Q611.43-184.59 480-184.59Z" />
    </symbol>

    <!-- info -->
    <symbol id="info" viewBox="0 -960 960 960" width="20px" height="20px">
        <path
            d="M479.79-284.41q16.73 0 28.27-11.38 11.53-11.39 11.53-28.21v-164.41q0-16.83-11.32-28.21Q496.95-528 480.21-528q-16.73 0-28.27 11.38-11.53 11.38-11.53 28.21V-324q0 16.82 11.32 28.21 11.32 11.38 28.06 11.38Zm0-310.81q17.24 0 29.12-11.66 11.87-11.67 11.87-28.91 0-17.24-11.66-29.12-11.67-11.87-28.91-11.87-17.24 0-29.12 11.66-11.87 11.67-11.87 28.91 0 17.24 11.66 29.12 11.67 11.87 28.91 11.87Zm.49 507.35q-81.19 0-152.62-30.62-71.44-30.62-125-84.17-53.55-53.56-84.17-124.95Q87.87-399 87.87-480.46q0-81.45 30.62-152.38 30.62-70.94 84.17-124.5 53.56-53.55 124.95-84.17 71.39-30.62 152.85-30.62 81.45 0 152.38 30.62 70.94 30.62 124.5 84.17 53.55 53.56 84.17 124.72 30.62 71.16 30.62 152.34 0 81.19-30.62 152.62-30.62 71.44-84.17 125-53.56 53.55-124.72 84.17-71.16 30.62-152.34 30.62Z" />
    </symbol>

    <!-- warning -->
    <symbol id="warning" viewBox="0 -960 960 960" width="20px" height="20px">
        <path
            d="M114.54-139.93q-12.58 0-22.02-5.74-9.43-5.74-14.67-15.13-5.72-9.2-5.22-20.66t6.22-21.84L444.22-813q5.71-10.43 15.58-15.03 9.87-4.6 20.25-4.6t20.2 4.6q9.82 4.6 15.53 15.03l365.37 609.7q5.72 10.38 6.22 21.84.5 11.46-5.22 20.66-5.72 9.19-14.91 15.03-9.2 5.84-21.78 5.84H114.54Zm365.25-124.79q15.45 0 26.43-10.77 10.98-10.76 10.98-26.21 0-15.45-10.77-26.31t-26.22-10.86q-15.45 0-26.43 10.65t-10.98 26.1q0 15.45 10.77 26.42 10.77 10.98 26.22 10.98Zm0-119.28q15.21 0 25.71-10.35T516-420v-117.37q0-15.3-10.29-25.65-10.29-10.35-25.5-10.35t-25.71 10.35Q444-552.67 444-537.37V-420q0 15.3 10.29 25.65Q464.58-384 479.79-384Z" />
    </symbol>

    <!-- help -->
    <symbol id="help" viewBox="0 -960 960 960" width="20px" height="20px">
        <path
            d="M479.17-240q21.07 0 35.91-14.72 14.83-14.73 14.83-35.83 0-21.1-14.72-35.79-14.73-14.68-35.79-14.68-21.07 0-35.91 14.57-14.84 14.57-14.84 35.67 0 21.11 14.73 35.94Q458.1-240 479.17-240Zm1.11 152.13q-81.19 0-152.62-30.62-71.44-30.62-125-84.17-53.55-53.56-84.17-124.95Q87.87-399 87.87-480.46q0-81.45 30.62-152.38 30.62-70.94 84.17-124.5 53.56-53.55 124.95-84.17 71.39-30.62 152.85-30.62 81.45 0 152.38 30.62 70.94 30.62 124.5 84.17 53.55 53.56 84.17 124.72 30.62 71.16 30.62 152.34 0 81.19-30.62 152.62-30.62 71.44-84.17 125-53.56 53.55-124.72 84.17-71.16 30.62-152.34 30.62Zm2.21-557.11q22.4 0 40.21 14.09 17.8 14.08 17.8 35.21 0 19.68-11.86 35.96-11.85 16.29-27.51 29.33-23 20-42.12 44.24-19.12 24.24-19.12 54.24 0 15.81 11.33 26.36Q462.56-395 477.67-395q17 0 28.88-11.1 11.88-11.1 15.84-27.81 4.48-20.05 17.64-35.35 13.17-15.3 28.45-29.25 23-20.82 38.52-47.87 15.52-27.04 15.52-57.42 0-51.48-41.14-84.58t-95.99-33.1q-39.02 0-73.3 17.48-34.29 17.48-57.4 50.22-8.32 11.53-4.6 25.44 3.73 13.91 15.71 23.41 14.72 11.71 31.8 6.85 17.07-4.85 29.03-19.33 10.52-13.05 24.94-20.31 14.42-7.26 30.92-7.26Z" />
    </symbol>

    <!-- hide -->
    <symbol id="hide" viewBox="0 -960 960 960" width="20px" height="20px">
        <path
            d="m738.93-114.33-99.5-98.74q-38.23 12.48-78.21 20.48t-81.22 8q-132.43 0-243.37-69.48Q125.7-323.54 61.98-439.98q-5.72-9.19-7.84-19.39-2.12-10.2-2.12-20.63t2.62-20.63q2.62-10.2 8.34-19.39 24.28-42.05 53.3-80.59 29.02-38.54 66.07-70.54l-72.61-72.37q-11.72-11.72-11.72-26.32 0-14.59 11.48-26.07 11.72-11.72 26.82-11.72 15.09 0 26.81 11.72l629.2 629.19q11.71 11.72 11.59 26.32-.12 14.6-11.59 26.07-11.72 11.72-26.7 11.72-14.98 0-26.7-11.72ZM480-312q12.8 0 25.73-2.88 12.92-2.88 25.97-6.64L321.04-531.7q-2.52 13.05-5.78 25.97Q312-492.8 312-480q0 70 49 119t119 49Zm0-463.41q132.43 0 243.87 69.48 111.43 69.47 175.15 187.15 5.48 9.43 7.72 19.01 2.24 9.57 2.24 19.77t-2.74 19.89q-2.74 9.7-7.22 19.13-17.8 32.61-39.13 62.82-21.32 30.2-48.17 56.77-13.44 14.15-32.95 13.77-19.51-.38-33.42-14.29l-91.24-91.24q-6.96-6.96-9.2-17.15-2.24-10.2-.24-19.4 1.29-7.32 2.31-15.27Q648-472.91 648-480q0-70-49-119t-119-49q-8.09 0-15.53 1.14-7.45 1.14-14.77 2.43-9.2 1.76-18.78-.48-9.57-2.24-16.53-9.2l-37.65-37.65q-19.39-19.39-12.44-45.74 6.96-26.35 33.31-31.59 21.09-4.28 41.31-5.3 20.23-1.02 41.08-1.02Zm68.7 225.84q5.84 5.37 9.41 11.77 3.56 6.39 5.32 14.04 2 5.56-3.54 8.21-5.54 2.64-9.59-1.41l-34.26-35.26q-4.04-4.04-1.52-9.58 2.52-5.55 8.33-4.31 7.17 2.76 13.82 7.09 6.66 4.32 12.03 9.45Z" />
    </symbol>

    <!-- error -->
    <symbol id="error" viewBox="0 -960 960 960" width="20px" height="20px">
        <path
            d="M479.73-279.87q18.14 0 30.67-12.27 12.53-12.26 12.53-30.4 0-18.13-12.26-30.79-12.27-12.65-30.4-12.65-18.14 0-30.67 12.44-12.53 12.44-12.53 30.58 0 18.13 12.26 30.61 12.27 12.48 30.4 12.48Zm.06-151.65q17.36 0 29.54-12.03 12.17-12.02 12.17-29.47v-162.5q0-17.45-11.96-29.48-11.97-12.02-29.33-12.02T450.67-665q-12.17 12.03-12.17 29.48v162.5q0 17.45 11.96 29.47 11.97 12.03 29.33 12.03Zm.49 343.65q-81.19 0-152.62-30.62-71.44-30.62-125-84.17-53.55-53.56-84.17-124.95Q87.87-399 87.87-480.46q0-81.45 30.62-152.38 30.62-70.94 84.17-124.5 53.56-53.55 124.95-84.17 71.39-30.62 152.85-30.62 81.45 0 152.38 30.62 70.94 30.62 124.5 84.17 53.55 53.56 84.17 124.72 30.62 71.16 30.62 152.34 0 81.19-30.62 152.62-30.62 71.44-84.17 125-53.56 53.55-124.72 84.17-71.16 30.62-152.34 30.62Z" />
    </symbol>

    <!-- checkbox-on -->
    <symbol id="checkbox-on" viewBox="0 -960 960 960" width="20px" height="20px">
        <path
            d="m428.28-445.41-54.02-52.79q-12.43-12.43-28.23-12.31-15.79.12-28.23 12.55-12.43 12.44-12.43 28.61 0 16.18 12.43 28.61l81.42 81.65q12.67 12.68 29.06 12.68t29.07-12.68l183.41-183.65q12.44-12.43 12.32-28.73-.12-16.29-12.56-28.73-12.43-12.43-28.11-12.43-15.67 0-28.11 12.43L428.28-445.41ZM218.87-135.87q-34.78 0-58.89-24.11t-24.11-58.89v-522.26q0-34.78 24.11-58.89t58.89-24.11h522.26q34.78 0 58.89 24.11t24.11 58.89v522.26q0 34.78-24.11 58.89t-58.89 24.11H218.87Z" />
    </symbol>

    <!-- checkbox-partial -->
    <symbol id="checkbox-partial" viewBox="0 -960 960 960" width="20px" height="20px">
        <path
            d="M375.59-440.41h208.82q16.74 0 28.16-11.37Q624-463.14 624-479.79q0-16.64-11.43-28.22-11.42-11.58-28.16-11.58H375.59q-16.74 0-28.16 11.37Q336-496.86 336-480.21q0 16.64 11.43 28.22 11.42 11.58 28.16 11.58ZM218.87-135.87q-34.48 0-58.74-24.26-24.26-24.26-24.26-58.74v-522.26q0-34.48 24.26-58.74 24.26-24.26 58.74-24.26h522.26q34.48 0 58.74 24.26 24.26 24.26 24.26 58.74v522.26q0 34.48-24.26 58.74-24.26 24.26-58.74 24.26H218.87Z" />
    </symbol>

    <!-- checkbox-off -->
    <symbol id="checkbox-off" viewBox="0 -960 960 960" width="20px" height="20px">
        <path
            d="M218.87-135.87q-34.48 0-58.74-24.26-24.26-24.26-24.26-58.74v-522.26q0-34.48 24.26-58.74 24.26-24.26 58.74-24.26h522.26q34.48 0 58.74 24.26 24.26 24.26 24.26 58.74v522.26q0 34.48-24.26 58.74-24.26 24.26-58.74 24.26H218.87Zm0-83h522.26v-522.26H218.87v522.26Z" />
    </symbol>

    <!-- download -->
    <symbol id="download" viewBox="0 -960 960 960" width="20px" height="20px">
        <path
            d="M479.8-356.02q-8.16 0-15.65-3.1-7.5-3.1-13.22-8.81L305.35-513.52q-12.44-12.35-12.06-29.28.38-16.94 12.58-29.37 13.15-12.68 29.8-12.56 16.66.12 29.33 12.79l73.5 74.5v-285.19q0-17.45 11.96-29.48 11.97-12.02 29.33-12.02t29.54 12.02q12.17 12.03 12.17 29.48v285.19l74.5-74.5q12.1-12.67 28.92-12.41 16.82.26 29.97 12.94 12.44 12.67 12.32 29.44-.12 16.77-12.8 29.45L509.07-367.93q-6.12 5.71-13.62 8.81-7.49 3.1-15.65 3.1ZM266.59-183.87q-34.5 0-58.61-24.26t-24.11-58.74v-30.5q0-17.45 11.96-29.48 11.97-12.02 29.33-12.02t29.54 12.02q12.17 12.03 12.17 29.48v30.5h426.26v-30.5q0-17.45 11.96-29.48 11.97-12.02 29.33-12.02t29.54 12.02q12.17 12.03 12.17 29.48v30.5q0 34.48-24.27 58.74-24.27 24.26-58.77 24.26h-426.5Z" />
    </symbol>

    <!-- arrow-up -->
    <symbol id="arrow-up" viewBox="0 -960 960 960" width="20px" height="20px">
        <path
            d="M438.5-616.85 271.61-449.96q-12.46 12.46-29.35 12.58-16.89.12-30.04-12.55-12.2-12.68-12.08-29.57.12-16.89 12.62-29.37l238.08-237.79q6.13-6.12 13.64-9.22 7.51-3.1 15.68-3.1t15.68 3.1q7.51 3.1 13.23 8.81L747.3-508.83q12.92 12.92 12.92 29.07t-12.44 28.83q-13.15 12.67-30.09 12.67-16.94 0-29.28-12.67L521.5-616.85v391.51q0 17.44-11.96 29.45-11.97 12.02-29.33 12.02t-29.54-12.02q-12.17-12.01-12.17-29.45v-391.51Z" />
    </symbol>

    <!-- skip -->
    <symbol id="skip" viewBox="0 -960 960 960" width="20px" height="20px">
        <path
            d="M371.91-480 211.74-640.17q-12.67-12.68-12.56-29.45.12-16.77 12.56-29.21 12.67-12.67 29.33-12.67 16.65 0 29.32 12.67l189.76 189.76q5.72 5.72 8.82 13.42 3.1 7.69 3.1 15.65t-3.1 15.65q-3.1 7.7-8.82 13.42L270.39-261.17q-12.67 12.67-28.94 12.05-16.28-.62-28.71-13.05-12.67-12.68-12.67-29.33t12.67-29.33L371.91-480Zm288.11 0L499.61-640.17q-12.68-12.68-12.56-29.45.12-16.77 12.56-29.21 12.67-12.67 29.32-12.67 16.66 0 29.33 12.67l189.76 189.76q5.72 5.72 8.82 13.42 3.09 7.69 3.09 15.65t-3.09 15.65q-3.1 7.7-8.82 13.42L558.26-261.17q-12.67 12.67-28.94 12.05-16.28-.62-28.71-13.05-12.68-12.68-12.68-29.33t12.68-29.33L660.02-480Z" />
    </symbol>

    <!-- search -->
    <symbol id="search" viewBox="0 -960 960 960" width="20px" height="20px">
        <path
            d="M382.12-330.5q-102.19 0-173.86-71.67-71.67-71.68-71.67-173.83t71.67-173.83q71.67-71.67 173.83-71.67 102.15 0 173.82 71.67 71.68 71.68 71.68 173.86 0 40.86-12.02 76.3-12.03 35.43-33.07 64.95l212.09 212.33q12.67 12.91 12.67 28.94 0 16.04-12.91 28.71-12.68 12.67-29.33 12.67t-29.32-12.67L523.85-375.59q-29.76 21.05-65.44 33.07-35.67 12.02-76.29 12.02Zm-.03-83q67.84 0 115.17-47.33 47.33-47.32 47.33-115.17t-47.33-115.17q-47.33-47.33-115.17-47.33-67.85 0-115.18 47.33-47.32 47.32-47.32 115.17t47.32 115.17q47.33 47.33 115.18 47.33Z" />
    </symbol>

    <!-- menu -->
    <symbol id="menu" viewBox="0 -960 960 960" width="20px" height="20px">
        <path
            d="M177.37-252.28q-17.45 0-29.48-11.97-12.02-11.96-12.02-29.32t12.02-29.54q12.03-12.17 29.48-12.17h605.26q17.45 0 29.48 11.96 12.02 11.96 12.02 29.33 0 17.36-12.02 29.53-12.03 12.18-29.48 12.18H177.37Zm0-186.22q-17.45 0-29.48-11.96-12.02-11.97-12.02-29.33t12.02-29.54q12.03-12.17 29.48-12.17h605.26q17.45 0 29.48 11.96 12.02 11.97 12.02 29.33t-12.02 29.54q-12.03 12.17-29.48 12.17H177.37Zm0-186.22q-17.45 0-29.48-11.96-12.02-11.96-12.02-29.33 0-17.36 12.02-29.53 12.03-12.18 29.48-12.18h605.26q17.45 0 29.48 11.97 12.02 11.96 12.02 29.32t-12.02 29.54q-12.03 12.17-29.48 12.17H177.37Z" />
    </symbol>

    <!-- home -->
    <symbol id="home" viewBox="0 -960 960 960" width="20px" height="20px">
        <path
            d="M183.87-230.87v-331.7q0-19.47 8.58-36.82 8.57-17.35 24.72-30.02L430.3-789.26q23.11-16.39 49.7-16.39 26.59 0 49.7 16.39l213.13 159.85q16.15 12.67 24.72 30.02 8.58 17.35 8.58 36.82v331.7q0 39.43-27.78 67.22-27.79 27.78-67.22 27.78h-85.72q-17.45 0-29.47-12.02-12.03-12.03-12.03-29.48v-191.04q0-17.46-12-29.48-11.99-12.02-29.41-12.02h-64.65q-17.42 0-29.59 12.02-12.17 12.02-12.17 29.48v191.04q0 17.45-12.03 29.48-12.02 12.02-29.47 12.02h-85.72q-39.43 0-67.22-27.78-27.78-27.79-27.78-67.22Z" />
    </symbol>

    <!-- close -->
    <symbol id="close" viewBox="0 -960 960 960" width="20px" height="20px">
        <path
            d="M480-421.35 319.83-261.17Q307.15-248.5 291-249t-28.83-13.17q-12.67-12.68-12.67-29.33t12.67-29.33L421.35-480 261.17-640.17Q248.5-652.85 249-669.5t13.17-29.33q12.68-12.67 29.33-12.67t29.33 12.67L480-538.65l160.17-160.18q12.68-12.67 29.33-12.67t29.33 12.67q12.67 12.68 12.67 29.33t-12.67 29.33L538.65-480l160.18 160.17Q711.5-307.15 711.5-291t-12.67 28.83q-12.68 12.67-29.33 12.67t-29.33-12.67L480-421.35Z" />
    </symbol>

    <!-- settings -->
    <symbol id="settings" viewBox="0 -960 960 960" width="20px" height="20px">
        <path
            d="M435.46-87.87q-18.2 0-31.04-10.6-12.83-10.6-15.83-27.79l-15-78.24q-21.09-8.28-41.04-19.33-19.94-11.04-37.51-25.84l-74.76 26q-15.95 5.24-32.65-.38t-25.17-20.82l-44.55-78.37q-8.48-14.96-5.36-31.53 3.12-16.58 16.08-28.06l58.76-52q-1.76-11.04-2.76-22.08-1-11.05-1-23.09t1-23.09q1-11.04 2.76-22.08l-58.76-51.76q-13.2-11.48-16.2-28.06t5.48-31.77l44.55-78.13q8.47-14.96 25.05-20.7 16.58-5.74 32.53-.5l75.48 26q17.57-14.8 37.15-25.73 19.59-10.92 40.92-19.2l15-78.48q3-17.43 15.83-28.03 12.84-10.6 31.04-10.6h89.08q18.2 0 31.04 10.6 12.83 10.6 15.83 28.03l15 78.48q21.09 8.28 41.04 19.2 19.94 10.93 37.51 25.73l74.76-26q15.95-5.24 32.65.5t25.17 20.7l44.55 78.13q8.48 15.19 5.48 31.77t-16.2 28.06l-59 51.76q1.76 11.04 2.76 22.08 1 11.05 1 23.09t-1.12 23.09q-1.12 11.04-2.64 22.08l59 51.76q13.2 11.48 16.2 28.06t-5.48 31.77l-44.55 78.37q-8.47 14.96-25.05 20.7-16.58 5.74-32.53.5l-75.48-26q-17.57 14.8-37.15 25.84-19.59 11.05-40.92 19.33l-15 78.24q-3 17.19-15.83 27.79-12.84 10.6-31.04 10.6h-89.08ZM479.28-336q60 0 102-42t42-102q0-60-42-102t-102-42q-59.76 0-101.88 42t-42.12 102q0 60 42.12 102t101.88 42Z" />
    </symbol>

    <!-- favorite -->
    <symbol id="favorite" viewBox="0 -960 960 960" width="20px" height="20px">
        <path
            d="M479.76-162.83q-15.15 0-29.44-5.33-14.3-5.34-26.97-16.77l-59.48-54.48Q255.35-335.7 171.61-429.03 87.87-522.37 87.87-634q0-91.59 62.15-152.98 62.15-61.39 154.74-61.39 50.52 0 95.78 20.42 45.26 20.43 79.22 59.47 35.96-39.04 80.22-59.47 44.26-20.42 94.78-20.42 92.59 0 155.1 61.39 62.51 61.39 62.51 152.98 0 111.63-84.1 204.97-84.1 93.33-192.62 189.86l-59.24 54.47q-12.67 11.44-27.08 16.66-14.42 5.21-29.57 5.21Z" />
    </symbol>

    <!-- add -->
    <symbol id="add" viewBox="0 -960 960 960" width="20px" height="20px">
        <path
            d="M438.5-438.5H273.37q-17.45 0-29.48-11.96-12.02-11.97-12.02-29.33t12.02-29.54q12.03-12.17 29.48-12.17H438.5v-165.13q0-17.45 11.96-29.48 11.97-12.02 29.33-12.02t29.54 12.02q12.17 12.03 12.17 29.48v165.13h165.13q17.45 0 29.48 11.96 12.02 11.97 12.02 29.33t-12.02 29.54q-12.03 12.17-29.48 12.17H521.5v165.13q0 17.45-11.96 29.48-11.97 12.02-29.33 12.02t-29.54-12.02q-12.17-12.03-12.17-29.48V-438.5Z" />
    </symbol>

    <!-- star -->
    <symbol id="star" viewBox="0 -960 960 960" width="20px" height="20px">
        <path
            d="m480-275.91-164.72 98.48q-12.67 6.95-24.85 5.83-12.17-1.12-21.36-8.07-9.2-6.96-13.8-19.01-4.6-12.06-1.12-24.73l43.24-183.72-145.72-123.72q-10.43-9.19-12.79-21.25-2.36-12.05.88-23.49 3.24-11.43 12.79-19.13 9.56-7.69 23.23-8.69l190.72-17 75.48-174.96q5.72-12.91 16.03-19.13 10.32-6.22 21.99-6.22 11.67 0 21.99 6.22 10.31 6.22 16.03 19.13l75.48 175.96 190.72 16q13.67 1 23.23 9.19 9.55 8.2 12.79 19.63 3.24 11.44.38 22.99-2.86 11.56-13.29 20.75L662.61-407.13l43.24 183.72q3.48 12.67-1.12 24.73-4.6 12.05-13.8 19.01-9.19 6.95-21.36 8.07-12.18 1.12-24.85-5.83L480-275.91Z" />
    </symbol>

    <!-- arrow-right -->
    <symbol id="arrow-right" viewBox="0 -960 960 960" width="20px" height="20px">
        <path
            d="M616.85-438.5H225.34q-17.44 0-29.45-11.96-12.02-11.97-12.02-29.33t12.02-29.54q12.01-12.17 29.45-12.17h391.51L449.96-688.39q-12.46-12.46-12.58-29.35-.12-16.89 12.55-30.04 12.68-12.2 29.57-12.08 16.89.12 29.37 12.62l237.79 238.08q6.12 6.13 9.22 13.64 3.1 7.51 3.1 15.68t-3.1 15.68q-3.1 7.51-8.81 13.23L508.83-212.7q-12.92 12.92-29.07 12.42t-28.83-12.94q-12.67-13.15-12.67-30.09 0-16.94 12.67-29.28L616.85-438.5Z" />
    </symbol>

    <!-- arrow-down -->
    <symbol id="arrow-down" viewBox="0 -960 960 960" width="20px" height="20px">
        <path
            d="M438.5-343.15v-391.51q0-17.44 11.96-29.45 11.97-12.02 29.33-12.02t29.54 12.02q12.17 12.01 12.17 29.45v391.51l166.89-166.89q12.46-12.46 29.35-12.58 16.89-.12 30.04 12.55 12.2 12.68 12.08 29.57-.12 16.89-12.62 29.37L509.16-213.34q-6.13 6.12-13.64 9.22-7.51 3.1-15.68 3.1t-15.68-3.1q-7.51-3.1-13.23-8.81L212.7-451.17q-12.92-12.92-12.42-29.57t12.94-29.33q13.15-12.67 30.09-12.67 16.94 0 29.28 12.67L438.5-343.15Z" />
    </symbol>

    <!-- arrow-left -->
    <symbol id="arrow-left" viewBox="0 -960 960 960" width="20px" height="20px">
        <path
            d="m343.15-438.5 166.89 166.89q12.46 12.46 12.58 29.35.12 16.89-12.55 30.04-12.68 12.2-29.57 12.08-16.89-.12-29.37-12.62L213.34-450.84q-6.12-6.13-9.22-13.64-3.1-7.51-3.1-15.68t3.1-15.68q3.1-7.51 8.81-13.23L451.17-747.3q12.92-12.92 29.74-12.92 16.81 0 29.16 12.92 12.67 12.34 12.67 29.27 0 16.94-12.52 29.46L343.15-521.5h391.51q17.44 0 29.45 11.96 12.02 11.97 12.02 29.33t-12.02 29.54q-12.01 12.17-29.45 12.17H343.15Z" />
    </symbol>

    <!-- mail -->
    <symbol id="mail" viewBox="0 -960 960 960" width="20px" height="20px">
        <path
            d="M170.87-183.87q-34.48 0-58.74-24.27-24.26-24.27-24.26-58.77v-426.5q0-34.5 24.26-58.61t58.74-24.11h618.26q34.48 0 58.74 24.27 24.26 24.27 24.26 58.77v426.5q0 34.5-24.26 58.61t-58.74 24.11H170.87ZM480-427.91q5.48 0 11.17-1.74 5.7-1.74 10.94-5.22L770.7-589.76q8.23-5 13.33-14.16 5.1-9.15 5.1-20.23 0-22.82-19.86-34.2-19.86-11.39-40.92.81L480-514.13 232.65-656.54q-20.43-11.96-41.11-1.36-20.67 10.6-20.67 33.75 0 10.95 5.6 20.05 5.6 9.1 13.83 14.34l268.59 154.89q4.78 3.48 9.97 5.22 5.18 1.74 11.14 1.74Z" />
    </symbol>

    <!-- code -->
    <symbol id="code" viewBox="0 -960 960 960" width="20px" height="20px">
        <path
            d="m202.3-480.24 160.18 160.17q12.91 12.92 12.79 29.45-.12 16.53-13.03 29.45-12.91 12.91-29.33 12.79-16.41-.12-29.66-13.13L113.59-450.93q-5.72-6.12-8.82-13.62-3.1-7.49-3.1-15.65t3.1-15.65q3.1-7.5 8.82-13.22l190-190q12.34-12.67 29.16-12.67t29.49 12.67q12.67 12.68 12.67 29.62t-12.67 29.28L202.3-480.24Zm555.4.48L597.52-639.93q-12.91-12.92-12.79-29.45.12-16.53 13.03-29.45 12.91-12.91 29.33-12.79 16.41.12 29.66 13.13l189.66 189.42q5.72 6.12 8.82 13.62 3.1 7.49 3.1 15.65t-3.1 15.65q-3.1 7.5-8.82 13.22l-190 190q-12.31 12.67-28.76 12.29-16.45-.38-29.13-13.06-12.67-12.67-12.67-29.61 0-16.94 12.67-29.28L757.7-479.76Z" />
    </symbol>

    <!-- restart -->
    <symbol id="restart" viewBox="0 -960 960 960" width="20px" height="20px">
        <path
            d="M393.83-148.54q-93.48-26.92-151.72-103.35-58.24-76.44-58.24-173.63 0-49.57 14.04-96.23 14.05-46.66 43.89-84.42 10.96-14.11 29.31-13.85 18.35.26 31.74 13.65 10.72 10.72 10.95 26.53.24 15.82-9 28.25-20.08 27.81-29.01 60.63-8.92 32.83-8.92 66.44 0 68.85 40.59 122.79 40.58 53.95 105.95 74.43 13.68 4.95 22.13 15.39 8.46 10.43 8.46 23.87 0 20.34-15.27 33.14-15.27 12.79-34.9 6.36Zm171.34 1q-18.63 6.43-33.9-6.74Q516-167.46 516-187.8q0-13.44 8.96-23.99 8.95-10.56 21.63-15.51 66.13-21.48 106.33-77.55 40.21-56.06 40.21-125.67 0-87.37-60.99-148.68-60.99-61.3-149.12-63.21h-3.95l16.23 16.24q11.72 11.71 10.72 26.31-1 14.6-12.72 26.32-11.71 11.71-26.81 11.71-15.1 0-25.82-11.71l-83.21-82.22q-5.72-5.72-8.7-14.29-2.98-8.58-2.98-17.54 0-7.95 3.48-15.53 3.48-7.58 9.2-13.29l84.21-84.46q11.72-11.72 26.32-11.72t26.31 11.72q11.72 11.72 11.22 26.82-.5 15.09-11.22 26.81l-19.58 21.59h4.19q123.63 0 209.93 86.13 86.29 86.13 86.29 209 0 98.43-58.24 176.63-58.24 78.19-152.72 106.35Z" />
    </symbol>

    <!-- refresh -->
    <symbol id="refresh" viewBox="0 -960 960 960" width="20px" height="20px">
        <path
            d="M479.04-183.87q-123.11 0-209.62-86.51T182.91-480q0-123.11 86.51-209.62t209.62-86.51q67.16 0 124.21 27.72 57.05 27.71 98.01 74.39v-64.2q0-16.11 10.84-27.01 10.84-10.9 26.86-10.9 16.03 0 27.08 10.9 11.05 10.9 11.05 27.01v172.31q0 17.45-12.03 29.47-12.02 12.03-29.47 12.03H562.8q-16.01 0-26.84-10.84-10.83-10.84-10.83-26.87 0-15.92 10.9-26.9Q546.93-600 563.04-600h91.66q-29-42.57-74.95-67.85-45.94-25.28-100.71-25.28-88.8 0-150.96 62.16Q265.91-568.8 265.91-480t62.17 150.97q62.16 62.16 150.96 62.16 72.37 0 127.58-43.71 55.21-43.7 73.45-109.59 5.34-15.48 20.28-24.06 14.93-8.57 30.82-5.62 16.94 2.96 26.9 15.89 9.95 12.94 6 28.37-24.44 96.24-102.75 158.98-78.32 62.74-182.28 62.74Z" />
    </symbol>

    <!-- replay -->
    <symbol id="replay" viewBox="0 -960 960 960" width="20px" height="20px">
        <path
            d="M480-80.43q-71.67 0-134.36-27.2-62.69-27.2-109.15-73.66-46.46-46.46-73.66-109.15-27.2-62.69-27.2-134.13 0-17.45 11.96-29.47 11.97-12.03 29.33-12.03t29.54 12.03q12.17 12.02 12.17 29.47 0 107.81 76.78 184.47Q372.2-163.43 480-163.43t184.59-76.79Q741.37-317 741.37-424.8q0-107.81-76.9-184.47t-185.1-76.66h-5.85l22.89 22.89q11.48 11.47 11.6 26.81.12 15.34-11.12 26.82-11.96 11.48-27.41 11.36-15.46-.12-26.94-11.6l-88.71-88.72q-12.68-12.31-12.68-28.88 0-16.58 12.68-29.25l88.71-88.72q11.48-11.48 26.44-11.6 14.95-.11 26.91 11.6 11.24 11.48 11 26.94-.24 15.45-11.72 26.93l-22.41 22.42h7q71.67 0 134.36 27.19 62.69 27.2 109.27 73.66 46.58 46.47 73.78 109.03 27.2 62.57 27.2 134.25 0 71.67-27.2 134.36-27.2 62.69-73.66 109.15-46.46 46.46-109.15 73.66-62.69 27.2-134.36 27.2Z" />
    </symbol>

    <!-- flag -->
    <symbol id="flag" viewBox="0 -960 960 960" width="20px" height="20px">
        <path
            d="M266.87-423.87v246.5q0 17.45-11.96 29.48-11.97 12.02-29.33 12.02t-29.54-12.02q-12.17-12.03-12.17-29.48v-605.26q0-17.45 12.02-29.48 12.03-12.02 29.48-12.02H501.9q15.4 0 26.52 8.91 11.11 8.91 14.23 22.63l16.05 64.46h175.93q17.45 0 29.48 12.02 12.02 12.03 12.02 29.48v317.26q0 17.45-12.02 29.48-12.03 12.02-29.48 12.02H553.85q-14.72 0-26.03-8.91-11.3-8.91-14.47-22.63l-16.05-64.46H266.87Z" />
    </symbol>

    <!-- expand -->
    <symbol id="expand" viewBox="0 -960 960 960" width="20px" height="20px">
        <path
            d="m480-205.41 148.41-148.18q12.44-12.43 29.33-12.43t29.33 12.43q12.43 12.44 12.43 29.21 0 16.77-12.43 29.21L538.65-147Q514.3-122.65 480-122.65T421.35-147L273.17-295.17q-12.43-12.44-12.05-29.21.38-16.77 12.81-29.21 12.44-12.43 29.21-12.43 16.77 0 29.21 12.43L480-205.41Zm0-549.18L331.35-606.17q-12.44 12.43-29.33 12.55-16.89.12-29.32-12.55-12.44-12.44-12.32-29.21.12-16.77 12.55-29.21L421.35-813q24.35-24.35 58.65-24.35T538.65-813l148.42 148.41q12.43 12.44 12.55 28.71.12 16.27-12.32 28.71-12.43 12.67-29.32 12.55-16.89-.12-29.33-12.55L480-754.59Z" />
    </symbol>

    <!-- collapse -->
    <symbol id="collapse" viewBox="0 -960 960 960" width="20px" height="20px">
        <path
            d="M480-277.35 317.83-116.17Q305.15-103.5 289-103.5t-28.83-12.67Q247.5-128.85 247.5-145t12.67-28.83L421.35-336q24.35-24.35 58.65-24.35T538.65-336l161.18 162.17Q712.5-161.15 712.5-145t-12.67 28.83Q687.15-103.5 671-103.5t-28.83-12.67L480-277.35Zm0-405.3 162.17-161.18Q654.85-856.5 671-856.5t28.83 12.67Q712.5-831.15 712.5-815t-12.67 28.83L538.65-624Q514.3-599.65 480-599.65T421.35-624L260.17-786.17Q247.5-798.85 247.5-815t12.67-28.83Q272.85-856.5 289-856.5t28.83 12.67L480-682.65Z" />
    </symbol>

    <!-- fold -->
    <symbol id="fold" viewBox="0 -960 960 960" width="20px" height="20px">
        <path
            d="m480-295.35-82.17 82.18q-12.68 12.67-29.33 12.67t-29.33-12.67q-12.67-12.68-12.67-29.33t12.67-29.33l111.76-111.76q5.72-5.71 13.42-8.81 7.69-3.1 15.65-3.1t15.65 3.1q7.7 3.1 13.42 8.81l111.76 111.76Q633.5-259.15 633.5-243t-12.67 28.83q-12.68 12.67-29.33 12.67t-29.33-12.67L480-295.35Zm0-369.3 82.17-82.18q12.68-12.67 29.33-12.67t29.33 12.67q12.67 12.68 12.67 29.33t-12.67 29.33L509.07-576.41q-5.72 5.71-13.42 8.81-7.69 3.1-15.65 3.1t-15.65-3.1q-7.7-3.1-13.42-8.81L339.17-688.17Q326.5-700.85 327-717.5t13.17-29.33q12.68-12.67 29.33-12.67t29.33 12.67L480-664.65Z" />
    </symbol>

    <!-- unfold -->
    <symbol id="unfold" viewBox="0 -960 960 960" width="20px" height="20px">
        <path
            d="m480-253.41 83.04-83.05q12.76-12.76 29.3-12.76 16.53 0 29.2 12.68 12.68 12.67 12.68 29.32t-12.57 29.26L509.49-165.43q-6.17 6.18-13.72 9.05-7.55 2.88-15.77 2.88-8.22 0-15.77-2.88-7.55-2.87-13.72-9.05L338.35-277.96q-12.57-12.61-12.07-29.26.5-16.65 13.18-29.32 12.67-12.44 29.32-12.44t29.3 12.76L480-253.41Zm0-453.89-83.04 83.04q-12.76 12.76-29.3 12.76-16.53 0-29.2-12.67-12.68-12.68-12.68-29.33t12.57-29.26l112.16-112.52q6.17-6.19 13.72-9.06 7.55-2.88 15.77-2.88 8.22 0 15.77 2.88 7.55 2.87 13.72 9.06l112.16 112.52q12.57 12.61 12.57 28.76 0 16.15-12.68 28.83-12.67 12.43-29.32 12.43t-29.41-12.64L480-707.3Z" />
    </symbol>

    <!-- folder -->
    <symbol id="folder" viewBox="0 -960 960 960" width="20px" height="20px">
        <path
            d="M170.87-183.87q-33.78 0-58.39-24.61t-24.61-58.39v-426.26q0-34.48 24.61-58.74 24.61-24.26 58.39-24.26h174.64q16.5 0 31.54 5.84 15.04 5.83 27.71 18.51L480-676.54h309.13q34.48 0 58.74 24.26 24.26 24.25 24.26 58.74v326.67q0 33.78-24.26 58.39t-58.74 24.61H170.87Z" />
    </symbol>

    <!-- file -->
    <symbol id="file" viewBox="0 -960 960 960" width="20px" height="20px">
        <path
            d="M373.87-239.28h212.17q16 0 26.98-10.89T624-276.99q0-15.92-10.82-26.9-10.81-10.98-26.81-10.98H373.96q-16 0-26.98 10.77T336-277.41q0 15.93 10.94 27.03 10.93 11.1 26.93 11.1Zm0-144h212.17q16 0 26.98-10.89T624-420.99q0-15.92-10.82-26.9-10.81-10.98-26.81-10.98H373.96q-16 0-26.98 10.77T336-421.41q0 15.93 10.94 27.03 10.93 11.1 26.93 11.1ZM266.59-87.87q-34.5 0-58.61-24.26t-24.11-58.74v-618.26q0-34.48 24.26-58.74 24.26-24.26 58.74-24.26H544.8q16.16 0 31.69 5.84 15.53 5.83 27.21 18.51L751.78-699.7q12.68 11.68 18.51 27.21 5.84 15.53 5.84 31.69v469.93q0 34.48-24.27 58.74-24.27 24.26-58.77 24.26h-426.5Zm258.54-574.76q0 17.45 12.02 29.48 12.03 12.02 29.48 12.02h126.5l-168-168v126.5Z" />
    </symbol>

    <!-- block -->
    <symbol id="block" viewBox="0 -960 960 960" width="20px" height="20px">
        <path
            d="M480-87.87q-80.67 0-152.11-30.72Q256.46-149.3 202.76-203q-53.69-53.7-84.29-125.25-30.6-71.55-30.6-152.23 0-81.67 30.6-152.49 30.6-70.81 84.29-124.39 53.7-53.57 125.13-84.17 71.44-30.6 152.11-30.6 81.67 0 152.61 30.6 70.93 30.6 124.63 84.17 53.69 53.58 84.29 124.39 30.6 70.82 30.6 152.49 0 80.68-30.6 152.23-30.6 71.55-84.29 125.25-53.7 53.7-124.63 84.41Q561.67-87.87 480-87.87Zm0-83q53.09 0 100.65-16.8 47.57-16.81 86.13-47.61L234.8-667.02q-30.32 39.04-47.13 86.37-16.8 47.32-16.8 100.17 0 128.81 90.28 219.21T480-170.87Zm245.43-123.06q30.09-39.05 46.9-86.37 16.8-47.33 16.8-100.18 0-128.56-90.28-218.61-90.28-90.04-218.85-90.04-52.85 0-100.05 16.56-47.21 16.57-86.25 46.66l431.73 431.98Z" />
    </symbol>

    <!-- thumb-up -->
    <symbol id="thumb-up" viewBox="0 -960 960 960" width="20px" height="20px">
        <path
            d="M834.98-619.22q31.06 0 57.03 25.47 25.97 25.47 25.97 57.53v42.42q0 8.47-1.62 15.69-1.62 7.22-4.86 14.46L791.07-180.59q-8.96 22.87-29.95 36.67-20.99 13.79-47.1 13.79H339.59q-34.79 0-58.89-23.61-24.11-23.61-24.11-59.39v-371.54q0-17.4 6.71-32.81 6.72-15.41 18.4-27.09l185.69-185.69q20.63-20.87 49.62-26.95 28.99-6.07 49.62 5.88 25.39 13.72 33.09 41.71 7.69 27.99 1.74 55.82l-25.7 134.58h259.22ZM110.67-130.13q-29.71 0-51.69-21.98Q37-174.09 37-203.8v-341.74q0-29.72 21.74-51.7 21.74-21.98 51.22-21.98h.95q29.72 0 51.7 21.98 21.98 21.98 21.98 51.7v341.74q0 29.71-21.98 51.69-21.98 21.98-51.7 21.98h-.24Z" />
    </symbol>

    <!-- thumb-down -->
    <symbol id="thumb-down" viewBox="0 -960 960 960" width="20px" height="20px">
        <path
            d="M125.02-340.78q-31.06 0-57.03-25.47-25.97-25.47-25.97-57.53v-42.42q0-8.47 1.62-15.69 1.62-7.22 4.86-14.46l120.43-283.06q8.96-22.87 29.95-36.67 20.99-13.79 47.1-13.79h374.43q34.79 0 58.89 23.61 24.11 23.61 24.11 59.39v371.54q0 17.4-6.71 32.81-6.72 15.41-18.4 27.09L492.61-129.74q-20.63 20.87-49.62 26.95-28.99 6.07-49.62-5.88-25.39-13.72-33.09-41.71-7.69-27.99-1.74-55.82l25.7-134.58H125.02Zm724.31-489.09q29.71 0 51.69 21.98Q923-785.91 923-756.2v341.74q0 29.72-21.74 51.7-21.74 21.98-51.22 21.98h-.95q-29.72 0-51.7-21.98-21.98-21.98-21.98-51.7V-756.2q0-29.71 21.98-51.69 21.98-21.98 51.7-21.98h.24Z" />
    </symbol>

    <!-- pin -->
    <symbol id="pin" viewBox="0 -960 960 960" width="20px" height="20px">
        <path
            d="M632.13-747.11v258.74l83.57 83.57q5.71 5.71 9.07 13.05 3.36 7.34 3.36 16.53v24.4q0 17.53-12.02 29.61-12.03 12.08-29.48 12.08H521.5v220.09q0 17.45-11.96 29.47-11.97 12.03-29.33 12.03t-29.54-12.03Q438.5-71.59 438.5-89.04v-220.09H273.37q-17.45 0-29.48-12.08-12.02-12.08-12.02-29.61v-24.4q0-9.19 3.36-16.53 3.36-7.34 9.07-13.05l83.57-83.57v-258.74h-12q-15.3-1.67-25.65-13.04-10.35-11.36-10.35-27.29 0-17.36 12.02-29.54 12.03-12.17 29.48-12.17h317.26q17.45 0 29.48 11.96 12.02 11.96 12.02 29.33 0 15.93-10.35 27.5-10.35 11.58-25.65 13.25h-12Z" />
    </symbol>

    <!-- bell -->
    <symbol id="bell" viewBox="0 -960 960 960" width="20px" height="20px">
        <path
            d="M225.66-207.87q-17.44 0-29.62-11.96-12.17-11.97-12.17-29.33t12.02-29.54q12.03-12.17 29.48-12.17H229v-231.87q0-90.11 54.82-159.1 54.81-68.99 142.68-85.7v-51.09q0-22.39 15.55-37.95 15.56-15.55 37.95-15.55t37.95 15.55q15.55 15.56 15.55 37.95v51.09q88.11 16.71 142.8 85.58Q731-613.09 731-522.74v231.87h3.63q17.45 0 29.48 11.96 12.02 11.97 12.02 29.33t-12.02 29.54q-12.02 12.17-29.46 12.17H225.66ZM480.03-85.24q-30.99 0-52.82-21.87-21.84-21.86-21.84-52.76h149.5q0 31.2-21.93 52.91-21.93 21.72-52.91 21.72Z" />
    </symbol>

    <!-- question -->
    <symbol id="question" viewBox="0 -960 960 960" width="20px" height="20px">
        <path
            d="M572.17-658.98q0-35.61-25.44-58.91-25.45-23.31-64.58-23.31-24.56 0-45.11 10.43-20.54 10.42-36.06 29.75-17.11 21.15-41.72 26.27-24.61 5.12-45.04-7.55-21.44-13.68-25.08-35.17-3.64-21.49 12.75-43.64 30.44-44 78.01-68.14 47.58-24.14 102.25-24.14 91.87 0 149.43 53.65 57.55 53.65 57.55 138 0 43.44-20.41 81.64-20.42 38.21-69.85 85.84-26.5 24.22-37.14 41.38-10.64 17.16-15.84 38.25-6.87 24.43-23.68 38.93-16.82 14.5-38.3 14.5-24.15 0-40.7-15.81-16.56-15.82-16.56-37.49 0-38.91 18.7-73.57 18.69-34.65 57.17-65.21 40.13-33.94 54.89-55.7 14.76-21.76 14.76-50Zm-90.02 524.07q-33.11 0-56.14-23.04-23.03-23.03-23.03-56.14t23.03-56.26q23.03-23.15 56.14-23.15t56.26 23.15q23.16 23.15 23.16 56.26t-23.16 56.14q-23.15 23.04-56.26 23.04Z" />
    </symbol>

    <!-- priority -->
    <symbol id="priority" viewBox="0 -960 960 960" width="20px" height="20px">
        <path
            d="M479.75-131.09q-32.86 0-56.01-23.4t-23.15-56.26q0-32.86 23.4-56.01t56.26-23.15q32.86 0 56.01 23.4t23.15 56.26q0 32.86-23.4 56.01t-56.26 23.15Zm.16-254.82q-31.34 0-53.42-22.22-22.08-22.22-22.08-53.43v-290.13q0-31.2 22.17-53.26Q448.75-827 480.09-827q31.34 0 53.42 22.22 22.08 22.22 22.08 53.42v290.14q0 31.2-22.17 53.25-22.17 22.06-53.51 22.06Z" />
    </symbol>

    <!-- bug -->
    <symbol id="bug" viewBox="0 -960 960 960" width="20px" height="20px">
        <path
            d="M480.01-135.87q-62.64 0-113.91-34.29-51.27-34.3-72.23-91.93h-72.09q-16.11 0-27.01-10.84-10.9-10.84-10.9-26.86t10.9-27.07q10.9-11.05 27.01-11.05h57.85q.18-13.97.21-27.93.03-13.96.03-28.25h-58.09q-16.11 0-27.01-10.84-10.9-10.84-10.9-26.86t10.9-27.07q10.9-11.05 27.01-11.05h58.09q0-14.29-.03-28.25t-.21-27.93h-57.85q-16.11 0-27.01-10.84-10.9-10.84-10.9-26.86t10.9-27.07q10.9-11.05 27.01-11.05h73.29q7.04-26.96 25.2-48.41 18.16-21.45 41.8-37.75l-54.81-54.56q-11.72-11.72-11.1-27.05.62-15.34 12.1-26.82 11.72-11.72 26.44-11.72 14.71 0 26.43 11.72l74.57 73.57q21.29-6.44 43.65-6.68 22.37-.24 43.8 5.96l74.05-74.05q11.59-11.71 27.16-11.71 15.56 0 26.71 11.48 11.71 11.71 11.71 26.93 0 15.22-11.71 26.93l-54.09 54.09q24.43 16.96 42.03 39.51 17.6 22.56 27.37 50.47h72.79q15.54 0 26.25 10.65t10.71 26.1q0 15.45-10.71 26.3-10.71 10.86-26.25 10.86h-58.8q-.18 13.97-.21 27.93-.03 13.96-.03 28.25h58.09q16.11 0 27.01 10.84 10.9 10.84 10.9 26.86t-10.9 27.07q-10.9 11.05-27.01 11.05h-58.09q0 14.29-.12 28.21-.12 13.92.12 27.97h58.09q16.11 0 27.01 10.84 10.9 10.84 10.9 26.86t-10.9 27.07q-10.9 11.05-27.01 11.05h-72.09q-20.96 57.63-72.21 91.93-51.26 34.29-113.91 34.29Zm-34.18-198.22h67.99q16.08 0 27.13-10.84T552-371.79q0-16.02-10.87-27.07-10.88-11.05-26.96-11.05h-67.99q-16.08 0-27.13 10.84T408-372.21q0 16.02 10.87 27.07 10.88 11.05 26.96 11.05Zm0-120h67.99q16.08 0 27.13-10.84T552-491.79q0-16.02-10.87-27.07-10.88-11.05-26.96-11.05h-67.99q-16.08 0-27.13 10.84T408-492.21q0 16.02 10.87 27.07 10.88 11.05 26.96 11.05Z" />

    </symbol>

    <!-- done -->
    <symbol id="done" viewBox="0 -960 960 960" width="20px" height="20px">
        <path
            d="M121.41-444.52q-12.43-12.44-12.55-29.33-.12-16.89 12.31-29.32 12.44-12.68 29.33-12.56 16.89.12 29.33 12.56L293-390l15.03 15.03 15.04 15.04q12.43 12.43 12.55 29.08.12 16.65-12.32 29.09-12.67 12.91-29.56 12.79-16.89-.12-29.57-12.79L121.41-444.52ZM497-397.89l294.7-294.7q12.43-12.43 29.2-12.55 16.77-.12 29.45 12.31 12.91 12.44 12.91 29.33t-12.67 29.57L526.07-309.41q-12.68 12.67-29.57 12.17t-29.57-13.17l-142-143q-12.91-12.92-12.79-29.07.12-16.15 13.03-28.82 12.68-12.44 29.33-12.44t29.09 12.44L497-397.89Zm142.41-236.76L525.83-521.07q-12.68 12.68-28.95 12.68t-28.71-12.68q-12.43-12.43-12.43-29.2t12.43-29.21l112.59-113.59q12.67-12.67 29.45-12.67 16.77 0 29.2 12.67 12.44 12.44 12.44 29.21 0 16.77-12.44 29.21Z" />
    </symbol>
</svg>