<?xml version="1.0" encoding="UTF-8" standalone="no"?><!DOCTYPE svg PUBLIC "-//W3C//DTD SVG 1.1//EN" "http://www.w3.org/Graphics/SVG/1.1/DTD/svg11.dtd"><svg width="100%" height="100%" viewBox="0 0 1080 1080" version="1.1" xmlns="http://www.w3.org/2000/svg" xmlns:xlink="http://www.w3.org/1999/xlink" xml:space="preserve" xmlns:serif="http://www.serif.com/" style="fill-rule:evenodd;clip-rule:evenodd;stroke-linejoin:round;stroke-miterlimit:2;"><rect id="mono" x="0" y="0" width="1080" height="1080" style="fill:none;"/><path d="M223.39,1c139.185,0 135.091,143.278 46.395,248.349l-21.833,25.927c-36.843,45.03 -57.311,91.425 -38.207,121.446c35.478,55.946 83.237,28.655 151.465,-23.198l356.15,-270.182c88.696,-66.864 147.372,-102.342 231.974,-102.342c76.416,0 132.362,87.332 118.717,169.205c-16.375,95.519 -73.686,133.727 -197.861,161.018l-427.106,92.79c-53.218,10.916 -125.539,19.103 -132.362,60.04c-5.459,30.02 5.458,61.405 51.853,83.238l474.866,227.881c39.572,19.104 77.779,-23.197 65.498,-62.769l-50.488,-165.112c-19.104,-62.769 19.104,-96.883 61.405,-99.613c46.395,-1.364 98.248,32.75 87.332,109.165l-49.125,341.139c-16.374,115.988 -92.789,161.018 -174.663,161.018c-90.061,0 -124.174,-55.947 -203.319,-150.101l-373.888,-444.846c-54.583,-64.134 -124.175,-9.552 -81.874,55.947l170.57,260.63c27.291,40.937 45.03,85.967 34.114,151.466c-12.281,68.228 -75.051,126.904 -171.934,126.904c-98.249,0 -147.373,-69.592 -140.55,-188.309l47.76,-713.663c9.552,-129.633 87.331,-176.028 165.111,-176.028Z"/></svg>