<?xml version="1.0" encoding="UTF-8" standalone="no"?>
<!DOCTYPE svg PUBLIC "-//W3C//DTD SVG 1.1//EN" "http://www.w3.org/Graphics/SVG/1.1/DTD/svg11.dtd">
<svg width="100%" height="100%" viewBox="0 0 1080 1080" version="1.1" xmlns="http://www.w3.org/2000/svg" xmlns:xlink="http://www.w3.org/1999/xlink" xml:space="preserve" xmlns:serif="http://www.serif.com/" style="fill-rule:evenodd;clip-rule:evenodd;stroke-linejoin:round;stroke-miterlimit:2;">
    <g transform="matrix(1,0,0,1,-1120,0)">
        <g id="pwa" transform="matrix(0.697329,0,0,0.852664,-3035.05,-460.438)">
            <rect x="5958.53" y="540" width="1548.77" height="1266.62" style="fill:none;"/>
            <g transform="matrix(1.28491,0,0,1.05083,6336.79,559.78)">
                <path d="M79.932,195.095C180.32,195.095 177.367,298.436 113.395,374.219L97.647,392.919C71.074,425.398 56.311,458.86 70.09,480.513C95.679,520.865 130.126,501.181 179.336,463.781L436.212,268.91C500.184,220.685 542.505,195.095 603.525,195.095C658.64,195.095 698.992,258.084 689.15,317.136C677.34,386.03 636.004,413.587 546.442,433.271L238.388,500.197C200.004,508.07 147.841,513.976 142.92,543.501C138.984,565.154 146.857,587.79 180.32,603.538L522.821,767.899C551.363,781.677 578.92,751.167 570.062,722.626L533.647,603.538C519.868,558.264 547.426,533.66 577.936,531.691C611.399,530.707 648.798,555.312 640.925,610.427L605.494,856.476C593.683,940.133 538.568,972.612 479.516,972.612C414.559,972.612 389.954,932.26 332.871,864.35L63.2,543.501C23.832,497.244 -26.362,536.612 4.149,583.854L127.173,771.835C146.857,801.361 159.652,833.84 151.778,881.081C142.92,930.291 97.647,972.612 27.769,972.612C-43.093,972.612 -78.524,922.418 -73.603,836.793L-39.156,322.057C-32.267,228.558 23.832,195.095 79.932,195.095Z" style="fill:#dd3c57;"/>
            </g>
        </g>
    </g>
</svg>
