<?xml version="1.0" encoding="UTF-8" standalone="no"?><!DOCTYPE svg PUBLIC "-//W3C//DTD SVG 1.1//EN" "http://www.w3.org/Graphics/SVG/1.1/DTD/svg11.dtd"><svg width="100%" height="100%" viewBox="0 0 1080 1080" version="1.1" xmlns="http://www.w3.org/2000/svg" xmlns:xlink="http://www.w3.org/1999/xlink" xml:space="preserve" xmlns:serif="http://www.serif.com/" style="fill-rule:evenodd;clip-rule:evenodd;stroke-linejoin:round;stroke-miterlimit:2;"><rect id="pwa" x="0" y="0" width="1080" height="1080" style="fill:#fff;"/><path d="M352.73,221.19c82.326,0 79.905,84.747 27.442,146.895l-12.914,15.335c-21.792,26.635 -33.898,54.077 -22.599,71.833c20.985,33.092 49.234,16.949 89.59,-13.721l210.656,-159.808c52.463,-39.549 87.169,-60.534 137.21,-60.534c45.198,0 78.29,51.656 70.218,100.082c-9.685,56.498 -43.584,79.097 -117.031,95.24l-252.626,54.883c-31.478,6.457 -74.255,11.3 -78.29,35.513c-3.229,17.757 3.228,36.32 30.67,49.234l280.875,134.788c23.407,11.3 46.006,-13.721 38.742,-37.127l-29.863,-97.661c-11.3,-37.127 11.299,-57.305 36.32,-58.919c27.442,-0.807 58.112,19.371 51.655,64.569l-29.056,201.778c-9.685,68.605 -54.884,95.24 -103.311,95.24c-53.269,-0 -73.447,-33.092 -120.26,-88.783l-221.149,-263.119c-32.284,-37.934 -73.447,-5.649 -48.426,33.092l100.889,154.159c16.142,24.213 26.635,50.848 20.178,89.589c-7.264,40.356 -44.392,75.062 -101.697,75.062c-58.112,-0 -87.168,-41.163 -83.132,-111.382l28.249,-422.12c5.649,-76.676 51.655,-104.118 97.66,-104.118Z" style="fill:#dd3c57;"/></svg>